<svg id="Layer_1" data-name="Layer 1" xmlns="http://www.w3.org/2000/svg" viewBox="0 0 34.64 23.68"><defs><style>.cls-1{fill:#fff;}</style></defs><title>email icon</title><path class="cls-1" d="M16.48,11.89a1.33,1.33,0,0,0,1.68,0L20,10.36,32.43.08a2.41,2.41,0,0,0-.6-.08h-29a2.41,2.41,0,0,0-.6.08L14.62,10.36Z"/><path class="cls-1" d="M21.58,12.55,19.7,14.1a3.72,3.72,0,0,1-4.76,0h0l-1.88-1.54L.32,2A4.24,4.24,0,0,0,0,3.61V19.67a4.09,4.09,0,0,0,1.39,3.1h0a3.49,3.49,0,0,0,2.32.91H30.93a3.51,3.51,0,0,0,2.32-.91h0a4.09,4.09,0,0,0,1.39-3.1V3.61A4.24,4.24,0,0,0,34.32,2Z"/></svg>