<svg id="Layer_1" data-name="Layer 1" xmlns="http://www.w3.org/2000/svg" viewBox="0 0 28.37 28.37"><defs><style>.cls-1{fill:#fff;}</style></defs><title>facbook icon</title><path class="cls-1" d="M24.55,0H3.82A3.82,3.82,0,0,0,0,3.82V24.55a3.82,3.82,0,0,0,3.82,3.82H14l0-10.14H11.43a.62.62,0,0,1-.62-.62l0-3.26a.63.63,0,0,1,.63-.63H14V10.56C14,6.9,16.28,4.9,19.55,4.9h2.68a.62.62,0,0,1,.62.63V8.28a.62.62,0,0,1-.62.62H20.59c-1.78,0-2.12.85-2.12,2.09v2.73h3.9a.63.63,0,0,1,.62.7l-.39,3.26a.62.62,0,0,1-.62.55h-3.5V28.37h6.08a3.82,3.82,0,0,0,3.82-3.82V3.82A3.82,3.82,0,0,0,24.55,0Z"/></svg>