<svg viewBox="0 0 80 80" xmlns="http://www.w3.org/2000/svg"><circle cx="40" cy="40" fill="#d5d5d5" r="40"/><g fill="#333"><path d="m42.53 36.9v-.09l-.06.09z"/><path d="m28.49 60.14h-9v-27.14h9zm-4.49-30.89h-.06a4.68 4.68 0 0 1 -5-4.7c0-2.67 2-4.7 5.11-4.7a4.7 4.7 0 0 1 5.06 4.7c-.02 2.61-1.98 4.7-5.11 4.7zm37.08 30.89h-9.08v-14.54c0-3.65-1.3-6.15-4.57-6.15a4.94 4.94 0 0 0 -4.64 3.31 6.14 6.14 0 0 0 -.3 2.2v15.19h-9s.12-24.64 0-27.19h9v3.85a9 9 0 0 1 8.15-4.49c5.94 0 10.4 3.89 10.4 12.24z"/></g></svg>