<svg id="Layer_1" data-name="Layer 1" xmlns="http://www.w3.org/2000/svg" viewBox="0 0 28.37 28.37"><defs><style>.cls-1{fill:#fff;}</style></defs><title>linkedin icon</title><path class="cls-1" d="M25.8,0H2.57A2.57,2.57,0,0,0,0,2.57V25.8a2.57,2.57,0,0,0,2.57,2.57H25.8a2.57,2.57,0,0,0,2.57-2.57V2.57A2.57,2.57,0,0,0,25.8,0Zm-17,24.5a.75.75,0,0,1-.75.74H4.85a.74.74,0,0,1-.74-.74V11.17a.75.75,0,0,1,.74-.75H8a.76.76,0,0,1,.75.75ZM6.44,9.17a3,3,0,1,1,3-3A3,3,0,0,1,6.44,9.17Zm19,15.39a.67.67,0,0,1-.68.68H21.29a.68.68,0,0,1-.68-.68V18.31c0-.94.27-4.09-2.44-4.09-2.1,0-2.53,2.16-2.61,3.13v7.21a.68.68,0,0,1-.69.68h-3.3a.68.68,0,0,1-.69-.68V11.11a.69.69,0,0,1,.69-.69h3.3a.69.69,0,0,1,.69.69v1.16c.78-1.17,1.93-2.07,4.4-2.07,5.46,0,5.43,5.1,5.43,7.91v6.45Z"/></svg>