<svg id="Layer_1" data-name="Layer 1" xmlns="http://www.w3.org/2000/svg" viewBox="0 0 31.08 25.85"><defs><style>.cls-1{fill:#fff;}</style></defs><title>twitter icon</title><path class="cls-1" d="M30.58,3a13.13,13.13,0,0,1-2.14.72A6.62,6.62,0,0,0,30.2.92h0a.35.35,0,0,0-.51-.41h0a12.17,12.17,0,0,1-3.27,1.36l-.21,0a.87.87,0,0,1-.57-.22A6.71,6.71,0,0,0,21.2,0a7.1,7.1,0,0,0-2.12.33A6.46,6.46,0,0,0,14.71,5a7.14,7.14,0,0,0-.16,2.47.28.28,0,0,1-.06.19.27.27,0,0,1-.19.08h0A17.57,17.57,0,0,1,2.2,1.29h0a.34.34,0,0,0-.57.05h0A6.69,6.69,0,0,0,2.72,9.48a6.46,6.46,0,0,1-1.53-.59h0a.35.35,0,0,0-.52.3h0a6.72,6.72,0,0,0,3.91,6.18H4.44a6.24,6.24,0,0,1-1.13-.1h0a.35.35,0,0,0-.4.45h0a6.73,6.73,0,0,0,5.31,4.56,12.35,12.35,0,0,1-6.93,2.11H.52a.5.5,0,0,0-.5.38.54.54,0,0,0,.25.59,18.4,18.4,0,0,0,9.24,2.49,18.68,18.68,0,0,0,7.9-1.67,17.57,17.57,0,0,0,5.78-4.33,18.9,18.9,0,0,0,3.53-5.93,18.62,18.62,0,0,0,1.21-6.48V7.33a1.13,1.13,0,0,1,.42-.88A13.29,13.29,0,0,0,31,3.52h0A.35.35,0,0,0,30.58,3Z"/></svg>