<svg viewBox="0 0 80 80" xmlns="http://www.w3.org/2000/svg"><circle cx="40" cy="40" fill="#d5d5d5" r="40"/><path d="m60.14 49.87a5.27 5.27 0 0 1 -4.51 4.13 140.44 140.44 0 0 1 -15.63.55 140.35 140.35 0 0 1 -15.63-.55 5.26 5.26 0 0 1 -4.51-4.1 44.58 44.58 0 0 1 -.73-9.9 44.58 44.58 0 0 1 .74-9.87 5.27 5.27 0 0 1 4.5-4.1 140.62 140.62 0 0 1 15.63-.58 140.53 140.53 0 0 1 15.64.55 5.28 5.28 0 0 1 4.51 4.1 44.58 44.58 0 0 1 .72 9.9 44.58 44.58 0 0 1 -.73 9.87z" fill="#333"/><path d="m34.61 46.48 13.27-6.88c-4.45-2.32-8.88-4.6-13.27-6.92z" fill="#d5d5d5"/></svg>